<svg width="557" height="170" viewBox="0 0 557 170" fill="none" xmlns="http://www.w3.org/2000/svg">
<path d="M49.56 85L32.332 53.73H27.494V85H7.316V2.164H41.182C47.7113 2.164 53.2573 3.30466 57.82 5.586C62.4613 7.86733 65.9227 11.014 68.204 15.026C70.4853 18.9593 71.626 23.3647 71.626 28.242C71.626 33.7487 70.0527 38.6653 66.906 42.992C63.838 47.3187 59.2753 50.3867 53.218 52.196L72.334 85H49.56ZM27.494 39.452H40.002C43.6993 39.452 46.4527 38.5473 48.262 36.738C50.15 34.9287 51.094 32.372 51.094 29.068C51.094 25.9213 50.15 23.4433 48.262 21.634C46.4527 19.8247 43.6993 18.92 40.002 18.92H27.494V39.452ZM96.2106 18.33V35.086H123.233V50.662H96.2106V68.834H126.773V85H76.0326V2.164H126.773V18.33H96.2106ZM209.374 2.164L179.992 85H154.74L125.358 2.164H146.834L167.366 64.704L188.016 2.164H209.374ZM229.726 2.164V85H209.548V2.164H229.726ZM266.06 85.826C260.003 85.826 254.575 84.8427 249.776 82.876C244.978 80.9093 241.123 77.9987 238.212 74.144C235.38 70.2893 233.886 65.648 233.728 60.22H255.204C255.519 63.288 256.581 65.648 258.39 67.3C260.2 68.8733 262.56 69.66 265.47 69.66C268.46 69.66 270.82 68.9913 272.55 67.654C274.281 66.238 275.146 64.3107 275.146 61.872C275.146 59.8267 274.438 58.1353 273.022 56.798C271.685 55.4607 269.994 54.3593 267.948 53.494C265.982 52.6287 263.15 51.6453 259.452 50.544C254.103 48.892 249.737 47.24 246.354 45.588C242.972 43.936 240.061 41.4973 237.622 38.272C235.184 35.0467 233.964 30.838 233.964 25.646C233.964 17.9367 236.757 11.9187 242.342 7.592C247.928 3.18666 255.204 0.983999 264.172 0.983999C273.298 0.983999 280.653 3.18666 286.238 7.592C291.824 11.9187 294.813 17.976 295.206 25.764H273.376C273.219 23.0893 272.236 21.0047 270.426 19.51C268.617 17.9367 266.296 17.15 263.464 17.15C261.026 17.15 259.059 17.8187 257.564 19.156C256.07 20.4147 255.322 22.2633 255.322 24.702C255.322 27.3767 256.581 29.4613 259.098 30.956C261.616 32.4507 265.549 34.0633 270.898 35.794C276.248 37.6033 280.574 39.334 283.878 40.986C287.261 42.638 290.172 45.0373 292.61 48.184C295.049 51.3307 296.268 55.382 296.268 60.338C296.268 65.058 295.049 69.3453 292.61 73.2C290.25 77.0547 286.789 80.1227 282.226 82.404C277.664 84.6853 272.275 85.826 266.06 85.826ZM320.604 18.33V35.086H347.626V50.662H320.604V68.834H351.166V85H300.426V2.164H351.166V18.33H320.604ZM27.494 151.424H53.926V167H7.316V84.164H27.494V151.424ZM75.4684 100.33V117.086H102.49V132.662H75.4684V150.834H106.03V167H55.2904V84.164H106.03V100.33H75.4684ZM140.842 167.826C134.785 167.826 129.357 166.843 124.558 164.876C119.76 162.909 115.905 159.999 112.994 156.144C110.162 152.289 108.668 147.648 108.51 142.22H129.986C130.301 145.288 131.363 147.648 133.172 149.3C134.982 150.873 137.342 151.66 140.252 151.66C143.242 151.66 145.602 150.991 147.332 149.654C149.063 148.238 149.928 146.311 149.928 143.872C149.928 141.827 149.22 140.135 147.804 138.798C146.467 137.461 144.776 136.359 142.73 135.494C140.764 134.629 137.932 133.645 134.234 132.544C128.885 130.892 124.519 129.24 121.136 127.588C117.754 125.936 114.843 123.497 112.404 120.272C109.966 117.047 108.746 112.838 108.746 107.646C108.746 99.9367 111.539 93.9187 117.124 89.592C122.71 85.1867 129.986 82.984 138.954 82.984C148.08 82.984 155.435 85.1867 161.02 89.592C166.606 93.9187 169.595 99.976 169.988 107.764H148.158C148.001 105.089 147.018 103.005 145.208 101.51C143.399 99.9367 141.078 99.15 138.246 99.15C135.808 99.15 133.841 99.8187 132.346 101.156C130.852 102.415 130.104 104.263 130.104 106.702C130.104 109.377 131.363 111.461 133.88 112.956C136.398 114.451 140.331 116.063 145.68 117.794C151.03 119.603 155.356 121.334 158.66 122.986C162.043 124.638 164.954 127.037 167.392 130.184C169.831 133.331 171.05 137.382 171.05 142.338C171.05 147.058 169.831 151.345 167.392 155.2C165.032 159.055 161.571 162.123 157.008 164.404C152.446 166.685 147.057 167.826 140.842 167.826ZM205.18 167.826C199.123 167.826 193.695 166.843 188.896 164.876C184.097 162.909 180.243 159.999 177.332 156.144C174.5 152.289 173.005 147.648 172.848 142.22H194.324C194.639 145.288 195.701 147.648 197.51 149.3C199.319 150.873 201.679 151.66 204.59 151.66C207.579 151.66 209.939 150.991 211.67 149.654C213.401 148.238 214.266 146.311 214.266 143.872C214.266 141.827 213.558 140.135 212.142 138.798C210.805 137.461 209.113 136.359 207.068 135.494C205.101 134.629 202.269 133.645 198.572 132.544C193.223 130.892 188.857 129.24 185.474 127.588C182.091 125.936 179.181 123.497 176.742 120.272C174.303 117.047 173.084 112.838 173.084 107.646C173.084 99.9367 175.877 93.9187 181.462 89.592C187.047 85.1867 194.324 82.984 203.292 82.984C212.417 82.984 219.773 85.1867 225.358 89.592C230.943 93.9187 233.933 99.976 234.326 107.764H212.496C212.339 105.089 211.355 103.005 209.546 101.51C207.737 99.9367 205.416 99.15 202.584 99.15C200.145 99.15 198.179 99.8187 196.684 101.156C195.189 102.415 194.442 104.263 194.442 106.702C194.442 109.377 195.701 111.461 198.218 112.956C200.735 114.451 204.669 116.063 210.018 117.794C215.367 119.603 219.694 121.334 222.998 122.986C226.381 124.638 229.291 127.037 231.73 130.184C234.169 133.331 235.388 137.382 235.388 142.338C235.388 147.058 234.169 151.345 231.73 155.2C229.37 159.055 225.909 162.123 221.346 164.404C216.783 166.685 211.395 167.826 205.18 167.826Z" fill="black"/>
<rect x="12.5" y="5.5" width="539" height="159" stroke="black" stroke-width="11"/>
<line x1="8.46482" y1="164.719" x2="555.465" y2="5.71861" stroke="black" stroke-width="11"/>
</svg>
