<svg width="550" height="170" viewBox="0 0 550 170" fill="none" xmlns="http://www.w3.org/2000/svg">
<g clip-path="url(#clip0_241_14)">
<path d="M42.56 85L25.332 53.73H20.494V85H0.316V2.164H34.182C40.7113 2.164 46.2573 3.30466 50.82 5.586C55.4613 7.86733 58.9227 11.014 61.204 15.026C63.4853 18.9593 64.626 23.3647 64.626 28.242C64.626 33.7487 63.0527 38.6653 59.906 42.992C56.838 47.3187 52.2753 50.3867 46.218 52.196L65.334 85H42.56ZM20.494 39.452H33.002C36.6993 39.452 39.4527 38.5473 41.262 36.738C43.15 34.9287 44.094 32.372 44.094 29.068C44.094 25.9213 43.15 23.4433 41.262 21.634C39.4527 19.8247 36.6993 18.92 33.002 18.92H20.494V39.452ZM89.2106 18.33V35.086H116.233V50.662H89.2106V68.834H119.773V85H69.0326V2.164H119.773V18.33H89.2106ZM202.374 2.164L172.992 85H147.74L118.358 2.164H139.834L160.366 64.704L181.016 2.164H202.374ZM222.726 2.164V85H202.548V2.164H222.726ZM259.06 85.826C253.003 85.826 247.575 84.8427 242.776 82.876C237.978 80.9093 234.123 77.9987 231.212 74.144C228.38 70.2893 226.886 65.648 226.728 60.22H248.204C248.519 63.288 249.581 65.648 251.39 67.3C253.2 68.8733 255.56 69.66 258.47 69.66C261.46 69.66 263.82 68.9913 265.55 67.654C267.281 66.238 268.146 64.3107 268.146 61.872C268.146 59.8267 267.438 58.1353 266.022 56.798C264.685 55.4607 262.994 54.3593 260.948 53.494C258.982 52.6287 256.15 51.6453 252.452 50.544C247.103 48.892 242.737 47.24 239.354 45.588C235.972 43.936 233.061 41.4973 230.622 38.272C228.184 35.0467 226.964 30.838 226.964 25.646C226.964 17.9367 229.757 11.9187 235.342 7.592C240.928 3.18666 248.204 0.983999 257.172 0.983999C266.298 0.983999 273.653 3.18666 279.238 7.592C284.824 11.9187 287.813 17.976 288.206 25.764H266.376C266.219 23.0893 265.236 21.0047 263.426 19.51C261.617 17.9367 259.296 17.15 256.464 17.15C254.026 17.15 252.059 17.8187 250.564 19.156C249.07 20.4147 248.322 22.2633 248.322 24.702C248.322 27.3767 249.581 29.4613 252.098 30.956C254.616 32.4507 258.549 34.0633 263.898 35.794C269.248 37.6033 273.574 39.334 276.878 40.986C280.261 42.638 283.172 45.0373 285.61 48.184C288.049 51.3307 289.268 55.382 289.268 60.338C289.268 65.058 288.049 69.3453 285.61 73.2C283.25 77.0547 279.789 80.1227 275.226 82.404C270.664 84.6853 265.275 85.826 259.06 85.826ZM313.604 18.33V35.086H340.626V50.662H313.604V68.834H344.166V85H293.426V2.164H344.166V18.33H313.604ZM20.494 151.424H46.926V167H0.316V84.164H20.494V151.424ZM68.4684 100.33V117.086H95.4904V132.662H68.4684V150.834H99.0304V167H48.2904V84.164H99.0304V100.33H68.4684ZM133.842 167.826C127.785 167.826 122.357 166.843 117.558 164.876C112.76 162.909 108.905 159.999 105.994 156.144C103.162 152.289 101.668 147.648 101.51 142.22H122.986C123.301 145.288 124.363 147.648 126.172 149.3C127.982 150.873 130.342 151.66 133.252 151.66C136.242 151.66 138.602 150.991 140.332 149.654C142.063 148.238 142.928 146.311 142.928 143.872C142.928 141.827 142.22 140.135 140.804 138.798C139.467 137.461 137.776 136.359 135.73 135.494C133.764 134.629 130.932 133.645 127.234 132.544C121.885 130.892 117.519 129.24 114.136 127.588C110.754 125.936 107.843 123.497 105.404 120.272C102.966 117.047 101.746 112.838 101.746 107.646C101.746 99.9367 104.539 93.9187 110.124 89.592C115.71 85.1867 122.986 82.984 131.954 82.984C141.08 82.984 148.435 85.1867 154.02 89.592C159.606 93.9187 162.595 99.976 162.988 107.764H141.158C141.001 105.089 140.018 103.005 138.208 101.51C136.399 99.9367 134.078 99.15 131.246 99.15C128.808 99.15 126.841 99.8187 125.346 101.156C123.852 102.415 123.104 104.263 123.104 106.702C123.104 109.377 124.363 111.461 126.88 112.956C129.398 114.451 133.331 116.063 138.68 117.794C144.03 119.603 148.356 121.334 151.66 122.986C155.043 124.638 157.954 127.037 160.392 130.184C162.831 133.331 164.05 137.382 164.05 142.338C164.05 147.058 162.831 151.345 160.392 155.2C158.032 159.055 154.571 162.123 150.008 164.404C145.446 166.685 140.057 167.826 133.842 167.826ZM198.18 167.826C192.123 167.826 186.695 166.843 181.896 164.876C177.097 162.909 173.243 159.999 170.332 156.144C167.5 152.289 166.005 147.648 165.848 142.22H187.324C187.639 145.288 188.701 147.648 190.51 149.3C192.319 150.873 194.679 151.66 197.59 151.66C200.579 151.66 202.939 150.991 204.67 149.654C206.401 148.238 207.266 146.311 207.266 143.872C207.266 141.827 206.558 140.135 205.142 138.798C203.805 137.461 202.113 136.359 200.068 135.494C198.101 134.629 195.269 133.645 191.572 132.544C186.223 130.892 181.857 129.24 178.474 127.588C175.091 125.936 172.181 123.497 169.742 120.272C167.303 117.047 166.084 112.838 166.084 107.646C166.084 99.9367 168.877 93.9187 174.462 89.592C180.047 85.1867 187.324 82.984 196.292 82.984C205.417 82.984 212.773 85.1867 218.358 89.592C223.943 93.9187 226.933 99.976 227.326 107.764H205.496C205.339 105.089 204.355 103.005 202.546 101.51C200.737 99.9367 198.416 99.15 195.584 99.15C193.145 99.15 191.179 99.8187 189.684 101.156C188.189 102.415 187.442 104.263 187.442 106.702C187.442 109.377 188.701 111.461 191.218 112.956C193.735 114.451 197.669 116.063 203.018 117.794C208.367 119.603 212.694 121.334 215.998 122.986C219.381 124.638 222.291 127.037 224.73 130.184C227.169 133.331 228.388 137.382 228.388 142.338C228.388 147.058 227.169 151.345 224.73 155.2C222.37 159.055 218.909 162.123 214.346 164.404C209.783 166.685 204.395 167.826 198.18 167.826Z" fill="#F9F9F9"/>
<rect x="5.5" y="5.5" width="539" height="159" stroke="#F9F9F9" stroke-width="11"/>
<line x1="1.46482" y1="164.719" x2="548.465" y2="5.71861" stroke="#F9F9F9" stroke-width="11"/>
</g>
<defs>
<clipPath id="clip0_241_14">
<rect width="550" height="170" fill="white"/>
</clipPath>
</defs>
</svg>
