<svg width="128" height="128" viewBox="0 0 128 128" fill="none" xmlns="http://www.w3.org/2000/svg">
<g clip-path="url(#clip0_254_8)">
<path fill-rule="evenodd" clip-rule="evenodd" d="M64 16C37.4903 16 16 37.4903 16 64C16 90.5097 37.4903 112 64 112C90.5097 112 112 90.5097 112 64C112 37.4903 90.5097 16 64 16ZM5.33334 64C5.33334 31.5993 31.5993 5.33331 64 5.33331C96.4007 5.33331 122.667 31.5993 122.667 64C122.667 96.4007 96.4007 122.667 64 122.667C31.5993 122.667 5.33334 96.4007 5.33334 64Z" fill="#808080"/>
<path fill-rule="evenodd" clip-rule="evenodd" d="M60.9759 43.4932C60.2256 44.0868 59.3157 45.2333 58.094 47.6524C56.7661 50.2816 53.5582 51.3365 50.929 50.0086C48.2998 48.6807 47.2448 45.4729 48.5727 42.8436C50.0177 39.9827 51.7744 37.1718 54.3575 35.1281C57.1265 32.9373 60.354 32 64 32C73.9581 32 80 40.0436 80 47.8827C80 51.6746 78.9529 54.8962 76.4119 57.9119C74.6504 60.0025 72.2239 61.9136 69.3334 63.9105V69.3333C69.3334 72.2789 66.9455 74.6667 64 74.6667C61.0545 74.6667 58.6667 72.2789 58.6667 69.3333V58.2018L61.0622 56.6208C65.1109 53.9486 67.1505 52.3494 68.2548 51.0388C69.0471 50.0985 69.3334 49.3654 69.3334 47.8827C69.3334 45.1724 67.3326 42.6667 64 42.6667C62.3127 42.6667 61.5402 43.0467 60.9759 43.4932ZM64 82.6667C66.9455 82.6667 69.3334 85.0545 69.3334 88V90.6667C69.3334 93.6122 66.9455 96 64 96C61.0545 96 58.6667 93.6122 58.6667 90.6667V88C58.6667 85.0545 61.0545 82.6667 64 82.6667Z" fill="#808080"/>
</g>
<defs>
<clipPath id="clip0_254_8">
<rect width="128" height="128" fill="white"/>
</clipPath>
</defs>
</svg>
